<svg xmlns="http://www.w3.org/2000/svg" width="1270" height="760" viewBox="0 0 1270 760">
  <defs>
    <linearGradient id="bg" x1="0" y1="0" x2="1" y2="1">
      <stop offset="0" stop-color="#07142b"/><stop offset="1" stop-color="#10295c"/>
    </linearGradient>
    <filter id="shadow"><feDropShadow dx="0" dy="16" stdDeviation="24" flood-color="#020817" flood-opacity=".5"/></filter>
  </defs>
  <rect width="1270" height="760" fill="url(#bg)"/>
  <circle cx="1110" cy="80" r="270" fill="#2764ff" opacity=".12"/>
  <circle cx="160" cy="750" r="260" fill="#20d3b0" opacity=".08"/>
  <g font-family="Inter,Arial,sans-serif">
    <g transform="translate(72 62)">
      <rect width="390" height="46" rx="23" fill="#1d396e"/>
      <circle cx="26" cy="23" r="7" fill="#47e6c2"/>
      <text x="46" y="30" fill="#dbe8ff" font-size="19" font-weight="700">ASSISTANTS MIGRATION CHECKER</text>
    </g>
    <text x="72" y="194" fill="#ffffff" font-size="62" font-weight="800">Find migration risks</text>
    <text x="72" y="266" fill="#ffffff" font-size="62" font-weight="800">before the shutdown.</text>
    <text x="74" y="323" fill="#b9caed" font-size="25">A free, browser-local checker. No signup. Nothing uploaded.</text>
    <g transform="translate(72 372)" filter="url(#shadow)">
      <rect width="1126" height="300" rx="28" fill="#0f2147" stroke="#315b9f"/>
      <text x="42" y="58" fill="#7fa9ff" font-size="19" font-weight="700" letter-spacing="1.8">CHECKS FOR</text>
      <g fill="#eef4ff" font-size="27" font-weight="650">
        <g transform="translate(42 91)"><circle cx="14" cy="14" r="14" fill="#1ccaa6"/><path d="M7 14l5 5 10-12" fill="none" stroke="#07142b" stroke-width="4"/><text x="42" y="22">Legacy Assistants, Threads and Runs usage</text></g>
        <g transform="translate(42 157)"><circle cx="14" cy="14" r="14" fill="#1ccaa6"/><path d="M7 14l5 5 10-12" fill="none" stroke="#07142b" stroke-width="4"/><text x="42" y="22">Messages, Run Steps and migration signals</text></g>
        <g transform="translate(42 223)"><circle cx="14" cy="14" r="14" fill="#1ccaa6"/><path d="M7 14l5 5 10-12" fill="none" stroke="#07142b" stroke-width="4"/><text x="42" y="22">Responses tool-loop state-risk patterns</text></g>
      </g>
      <rect x="853" y="44" width="226" height="54" rx="27" fill="#2764ff"/>
      <text x="966" y="79" text-anchor="middle" fill="#fff" font-size="20" font-weight="750">RUN FREE CHECK</text>
    </g>
  </g>
</svg>
